<?xml version="1.0" encoding="UTF-8" standalone="no"?>
<!-- Created with Inkscape (http://www.inkscape.org/) -->

<svg
   xmlns:dc="http://purl.org/dc/elements/1.1/"
   xmlns:cc="http://creativecommons.org/ns#"
   xmlns:rdf="http://www.w3.org/1999/02/22-rdf-syntax-ns#"
   xmlns:svg="http://www.w3.org/2000/svg"
   xmlns="http://www.w3.org/2000/svg"
   xmlns:sodipodi="http://sodipodi.sourceforge.net/DTD/sodipodi-0.dtd"
   xmlns:inkscape="http://www.inkscape.org/namespaces/inkscape"
   width="32"
   height="32"
   id="svg2"
   version="1.1"
   inkscape:version="0.48.4 r"
   sodipodi:docname="icon.svg">
  <defs
     id="defs4" />
  <sodipodi:namedview
     id="base"
     pagecolor="#ffffff"
     bordercolor="#666666"
     borderopacity="1.0"
     inkscape:pageopacity="0.0"
     inkscape:pageshadow="2"
     inkscape:zoom="9.1321519"
     inkscape:cx="48.328534"
     inkscape:cy="16.013673"
     inkscape:document-units="px"
     inkscape:current-layer="text2985"
     showgrid="false"
     inkscape:window-width="1218"
     inkscape:window-height="697"
     inkscape:window-x="-8"
     inkscape:window-y="-8"
     inkscape:window-maximized="1" />
  <metadata
     id="metadata7">
    <rdf:RDF>
      <cc:Work
         rdf:about="">
        <dc:format>image/svg+xml</dc:format>
        <dc:type
           rdf:resource="http://purl.org/dc/dcmitype/StillImage" />
        <dc:title></dc:title>
      </cc:Work>
    </rdf:RDF>
  </metadata>
  <g
     inkscape:label="Layer 1"
     inkscape:groupmode="layer"
     id="layer1"
     transform="translate(0,-1020.3622)">
    <g
       style="font-size:40px;font-style:normal;font-weight:normal;line-height:76.99999809%;letter-spacing:0px;word-spacing:0px;fill:#000000;fill-opacity:1;stroke:none;font-family:Sans"
       id="text2985">
      <path
         d="m 15.272182,1035.275 c -0.580081,0 -1.073326,-0.06 -1.479737,-0.1799 -0.406414,-0.12 -0.788656,-0.2677 -1.146728,-0.4431 l 0,-1.3321 0.0752,0 c 0.350911,0.3295 0.748371,0.5846 1.192383,0.7654 0.444008,0.1809 0.871905,0.2713 1.283691,0.2713 0.587236,0 1.031246,-0.1227 1.332031,-0.368 0.300777,-0.2452 0.451168,-0.5684 0.451172,-0.9694 -4e-6,-0.3187 -0.07878,-0.5783 -0.236328,-0.7788 -0.157556,-0.2006 -0.408207,-0.3492 -0.751953,-0.4458 -0.247074,-0.072 -0.472659,-0.1307 -0.676758,-0.1773 -0.204104,-0.046 -0.460126,-0.1092 -0.768066,-0.188 -0.275718,-0.072 -0.522788,-0.1629 -0.741211,-0.2739 -0.218426,-0.111 -0.411785,-0.256 -0.580078,-0.4351 -0.164715,-0.1754 -0.292726,-0.3822 -0.384033,-0.6203 -0.09131,-0.2381 -0.136964,-0.513 -0.136963,-0.8245 -10e-7,-0.6481 0.25244,-1.1915 0.757324,-1.6301 0.504881,-0.4386 1.149412,-0.658 1.933594,-0.658 0.447587,0 0.871008,0.045 1.270263,0.1343 0.399247,0.09 0.768957,0.2166 1.109131,0.3814 l 0,1.2729 -0.08057,0 c -0.254237,-0.2327 -0.580083,-0.4359 -0.977539,-0.6096 -0.397465,-0.1737 -0.81462,-0.2605 -1.251465,-0.2605 -0.494143,0 -0.893394,0.1155 -1.197754,0.3464 -0.304364,0.231 -0.456545,0.5344 -0.456543,0.9104 -2e-6,0.3402 0.08952,0.6105 0.268555,0.8111 0.179034,0.2005 0.438637,0.3473 0.778808,0.4404 0.225583,0.061 0.501299,0.1298 0.827149,0.2068 0.325842,0.077 0.596187,0.1477 0.811035,0.2121 0.551427,0.1683 0.954259,0.4226 1.208496,0.7627 0.254226,0.3402 0.381342,0.7591 0.381348,1.2569 -6e-6,0.3115 -0.06356,0.6194 -0.190674,0.9238 -0.127122,0.3044 -0.305263,0.5622 -0.534424,0.7734 -0.257817,0.2328 -0.548751,0.4118 -0.872803,0.5371 -0.32406,0.1254 -0.729577,0.188 -1.216552,0.188 z"
         style="font-size:11px"
         id="path3011" />
      <path
         d="m 24.021693,1032.1329 c -5e-6,1.0098 -0.243495,1.7895 -0.730469,2.3391 -0.486983,0.5497 -1.135094,0.8245 -1.944335,0.8245 -0.834313,0 -1.49048,-0.2838 -1.968506,-0.8513 -0.478028,-0.5676 -0.717042,-1.3383 -0.717041,-2.3123 -1e-6,-1.0026 0.246174,-1.7814 0.738525,-2.3364 0.492349,-0.555 1.141355,-0.8325 1.947022,-0.8325 0.809241,0 1.457352,0.2766 1.944335,0.8298 0.486974,0.5533 0.730464,1.333 0.730469,2.3391 z m -1.041992,0 c -5e-6,-0.777 -0.141443,-1.3544 -0.424316,-1.7321 -0.282882,-0.3778 -0.685714,-0.5667 -1.208496,-0.5667 -0.52637,0 -0.931887,0.1889 -1.216553,0.5667 -0.28467,0.3777 -0.427003,0.9551 -0.427002,1.7321 -1e-6,0.752 0.142332,1.3222 0.427002,1.7107 0.284666,0.3885 0.690183,0.5828 1.216553,0.5828 0.519202,0 0.921138,-0.1907 1.20581,-0.572 0.284664,-0.3814 0.426997,-0.9552 0.427002,-1.7215 z"
         style="font-size:11px"
         id="path3013" />
      <path
         d="m 16.169154,1043.745 c -0.52279,0 -1.003502,-0.088 -1.442139,-0.2632 -0.438641,-0.1754 -0.817303,-0.4368 -1.135986,-0.7841 -0.318686,-0.3474 -0.565756,-0.7806 -0.741211,-1.2998 -0.175456,-0.5192 -0.263184,-1.1154 -0.263183,-1.7886 -10e-7,-0.6696 0.08504,-1.2533 0.255127,-1.751 0.170083,-0.4977 0.418049,-0.931 0.743896,-1.2998 0.318683,-0.3581 0.69645,-0.6311 1.133301,-0.8191 0.436846,-0.188 0.925615,-0.282 1.466308,-0.282 0.268551,0 0.520097,0.02 0.754639,0.059 0.234533,0.039 0.452062,0.09 0.652588,0.1504 0.171869,0.054 0.34822,0.1209 0.529053,0.2014 0.18082,0.081 0.358962,0.1692 0.534424,0.2659 l 0,1.2837 -0.08594,0 c -0.0931,-0.086 -0.213059,-0.1898 -0.359863,-0.3115 -0.146816,-0.1218 -0.325852,-0.2417 -0.53711,-0.3599 -0.204106,-0.111 -0.426111,-0.2023 -0.666015,-0.2739 -0.239914,-0.072 -0.51742,-0.1075 -0.83252,-0.1075 -0.340173,0 -0.662438,0.07 -0.966797,0.2095 -0.304364,0.1397 -0.571128,0.3456 -0.800293,0.6177 -0.225587,0.2721 -0.401043,0.6141 -0.526367,1.0259 -0.125327,0.4118 -0.18799,0.8755 -0.187988,1.3911 -2e-6,0.5478 0.06624,1.0196 0.19873,1.4153 0.132486,0.3956 0.313312,0.7295 0.542481,1.0017 0.222003,0.2649 0.483396,0.4646 0.78418,0.5989 0.300778,0.1342 0.619462,0.2014 0.956054,0.2014 0.307939,0 0.592606,-0.038 0.854004,-0.1128 0.261388,-0.075 0.494136,-0.1701 0.698242,-0.2847 0.196935,-0.111 0.367019,-0.2247 0.510254,-0.3411 0.143223,-0.1163 0.256016,-0.2157 0.338379,-0.2981 l 0.08057,0 0,1.2676 c -0.175462,0.082 -0.341071,0.1612 -0.496827,0.2364 -0.155767,0.075 -0.34465,0.1486 -0.56665,0.2202 -0.232753,0.075 -0.448491,0.1325 -0.647217,0.1718 -0.198735,0.039 -0.457442,0.059 -0.776123,0.059 z"
         style="font-size:11px"
         id="path3015" />
      <path
         d="m 24.515834,1040.6029 c -6e-6,1.0098 -0.243495,1.7895 -0.730469,2.3391 -0.486984,0.5497 -1.135095,0.8245 -1.944336,0.8245 -0.834312,0 -1.49048,-0.2838 -1.968506,-0.8513 -0.478028,-0.5676 -0.717041,-1.3383 -0.717041,-2.3123 0,-1.0026 0.246175,-1.7814 0.738526,-2.3364 0.492348,-0.555 1.141355,-0.8325 1.947021,-0.8325 0.809241,0 1.457352,0.2766 1.944336,0.8298 0.486974,0.5533 0.730463,1.333 0.730469,2.3391 z m -1.041992,0 c -5e-6,-0.777 -0.141444,-1.3544 -0.424317,-1.7321 -0.282881,-0.3778 -0.685713,-0.5667 -1.208496,-0.5667 -0.526369,0 -0.931887,0.1889 -1.216553,0.5667 -0.284669,0.3777 -0.427003,0.9551 -0.427002,1.7321 -1e-6,0.752 0.142333,1.3222 0.427002,1.7107 0.284666,0.3885 0.690184,0.5828 1.216553,0.5828 0.519202,0 0.921139,-0.1907 1.205811,-0.572 0.284663,-0.3814 0.426997,-0.9552 0.427002,-1.7215 z"
         style="font-size:11px"
         id="path3017" />
    </g>
  </g>
</svg>
